<?xml version="1.0" standalone="no"?>
<!DOCTYPE svg PUBLIC "-//W3C//DTD SVG 20010904//EN"
 "http://www.w3.org/TR/2001/REC-SVG-20010904/DTD/svg10.dtd">
<svg version="1.0" xmlns="http://www.w3.org/2000/svg"
 width="120.000000pt" height="120.000000pt" viewBox="0 0 120.000000 120.000000"
 preserveAspectRatio="xMidYMid meet">
<metadata>
Created by potrace 1.14, written by Peter Selinger 2001-2017
</metadata>
<g transform="translate(0.000000,120.000000) scale(0.100000,-0.100000)"
fill="#000000" stroke="none">
<path d="M0 930 c0 -148 2 -270 5 -270 2 0 32 18 65 39 79 52 188 96 297 122
102 24 274 29 365 10 62 -13 88 -30 35 -23 l-32 4 43 -37 c23 -20 42 -45 42
-54 0 -10 -25 -37 -57 -61 -45 -33 -52 -36 -30 -13 l28 30 -35 36 c-19 20 -37
50 -41 67 -6 26 -11 30 -39 30 -50 0 -144 -28 -205 -61 -83 -44 -117 -75 -40
-35 108 55 240 71 255 31 3 -7 -5 -33 -19 -57 -47 -82 -43 -138 14 -219 31
-43 31 -43 4 -19 -47 43 -68 97 -62 157 7 66 -7 120 -34 128 -66 21 -194 -55
-268 -161 l-35 -49 48 43 c61 56 128 87 156 72 11 -6 34 -39 51 -73 33 -63 63
-109 108 -161 18 -21 9 -16 -28 15 -78 65 -103 91 -134 143 -32 51 -51 57 -91
25 -32 -25 -63 -72 -123 -188 -24 -47 -64 -115 -88 -151 -25 -36 -45 -71 -45
-78 0 -8 32 -49 72 -93 69 -76 73 -79 117 -79 l45 0 -36 38 c-50 50 -88 135
-88 194 0 26 9 72 20 102 23 60 90 143 128 157 37 14 96 -19 177 -101 l70 -71
-50 22 c-27 12 -77 48 -111 80 -72 68 -90 69 -134 4 -91 -133 -91 -296 3 -392
l31 -33 158 0 157 0 16 30 c39 76 -8 152 -158 254 -87 58 -128 62 -157 13 -12
-20 -20 -51 -21 -82 -1 -45 -2 -47 -10 -20 -11 37 5 99 32 126 42 42 131 10
238 -87 104 -93 133 -158 95 -212 l-15 -22 255 0 256 0 0 600 0 600 -600 0
-600 0 0 -270z m913 -276 c-5 -13 -9 -9 -18 17 -15 46 -5 74 12 32 7 -18 10
-40 6 -49z m76 -104 c-7 -31 -7 -55 0 -73 8 -21 7 -27 -2 -27 -29 0 -36 21
-21 62 8 22 14 64 15 92 1 45 2 48 9 22 6 -17 5 -48 -1 -76z m-264 -69 c21
-41 12 -39 -14 3 -13 20 -21 49 -20 72 l1 39 8 -42 c5 -23 16 -55 25 -72z
m105 -11 c12 -23 12 -24 -4 -11 -26 22 -36 45 -29 72 7 23 7 23 13 -6 4 -16
13 -41 20 -55z"/>
<path d="M480 804 c-22 -12 -23 -13 -5 -13 24 -1 50 14 38 22 -4 3 -19 -1 -33
-9z"/>
<path d="M250 730 c-43 -23 -128 -97 -90 -79 32 15 140 88 140 94 0 9 -14 4
-50 -15z"/>
<path d="M75 555 c-24 -44 -17 -51 22 -22 25 18 29 26 22 40 -14 25 -24 21
-44 -18z"/>
<path d="M30 433 c0 -38 13 -49 31 -27 10 13 9 19 -9 37 l-22 21 0 -31z"/>
<path d="M66 246 c3 -9 11 -16 16 -16 13 0 5 23 -10 28 -7 2 -10 -2 -6 -12z"/>
<path d="M0 20 c0 -19 7 -20 98 -20 l97 0 -25 20 c-19 15 -41 20 -97 20 -66 0
-73 -2 -73 -20z"/>
</g>
</svg>
